# xmcd
#
# Track frame offsets: 
#        150
#        9615
#        23718
#        42294
#        56147
#        66842
#        80358
#        100426
#        114045
#        124624
#        142725
#
# Disc length: 2005 seconds
#
# Revision: 0
# Processed by: cddbd v1.5.2PL0 Copyright (c) Steve Scherf et al.
# Submitted via: ExactAudioCopy v0.99pb5
#
DISCID=8607d30b
DTITLE=Thomas Ford And The Dirty Harmonys - Seperation Street
DYEAR=2009
DGENRE=Blues
TTITLE0=richmanpoormanbeggarmanthief
TTITLE1=I Wouldn't Mind Dying (But I Have To Go By Myself)
TTITLE2=Wandering Eagle
TTITLE3=Hurt Like Mine
TTITLE4=You Can't Make Nobody Love You
TTITLE5=(It's A Mean Old World For A) Drunken Hearted Man
TTITLE6=Seperation Street
TTITLE7=Love In Vain
TTITLE8=There Comes A Time
TTITLE9=Rest In Pieces
TTITLE10=Human After All
EXTD=
EXTT0=
EXTT1=
EXTT2=
EXTT3=
EXTT4=
EXTT5=
EXTT6=
EXTT7=
EXTT8=
EXTT9=
EXTT10=
PLAYORDER=
